<svg width="14" height="14" viewBox="0 0 14 14" fill="none" xmlns="http://www.w3.org/2000/svg">
<path fill-rule="evenodd" clip-rule="evenodd" d="M7.23613 7.23548C6.04518 8.42637 4.11548 8.42637 2.92453 7.23548C1.7346 6.04562 1.7346 4.115 2.92453 2.92513C4.11548 1.73425 6.04518 1.73425 7.23613 2.92513C8.42606 4.115 8.42606 6.04562 7.23613 7.23548ZM13.702 12.2652L9.32029 7.88173C10.6271 5.90844 10.4106 3.2259 8.67299 1.48835C6.68842 -0.496117 3.47225 -0.496117 1.48767 1.48835C-0.49589 3.4718 -0.49589 6.68882 1.48767 8.67328C3.22633 10.4108 5.90902 10.6263 7.88241 9.31953L12.2651 13.702C12.6625 14.0993 13.3067 14.0993 13.702 13.702C14.0993 13.3057 14.0993 12.6625 13.702 12.2652Z" fill="#9C9C9C"/>
</svg>
